<?xml version="1.0" encoding="utf-8" ?><svg xmlns="http://www.w3.org/2000/svg" xmlns:xlink="http://www.w3.org/1999/xlink" width="1024" height="1024" viewBox="0 0 1024 1024"><path fill="#E8F0EA" d="M512.281 341.916C536.167 356.743 561.617 371.253 585.771 385.758C599.699 394.123 615.316 403.871 629.54 411.406C631.417 408.816 631.813 408.196 634.383 406.098L634.513 405.989L663.882 405.891C670.442 405.847 681.773 404.727 687.187 408.276C689.701 409.923 689.763 419.508 689.508 422.392C688.502 433.774 690.77 448.492 689.001 459.521C679.8 474.111 664.622 457.76 664.116 470.049C665.659 505.003 663.972 540.793 664.607 575.825C664.694 580.618 664.732 585.992 664.53 590.761L554.434 656.31C541.685 663.756 529.286 671.818 516.439 679.081C512.639 681.229 508.492 678.436 505.181 676.657C498.048 672.579 490.975 668.307 483.926 664.087L430.298 631.836C418.693 624.906 406.912 618.627 395.305 611.381C395.138 612.705 395.009 614.081 394.395 615.286C393.505 617.029 392.083 617.971 390.247 618.486C383.753 620.307 351.349 620.249 343.957 619.434C341.943 619.212 339.081 618.775 337.398 617.566C336.138 616.66 335.559 614.607 335.204 613.187C333.873 607.859 333.431 567.484 336.039 563.778C340.085 558.03 353.642 561.426 359.896 560.569C360.092 560.542 360.288 560.507 360.484 560.477C360.2 552.151 360.451 542.594 360.455 534.13L360.467 482.267L360.457 450.553C360.458 445.17 360.243 437.089 360.849 431.969C379.29 421.797 398.408 409.891 416.571 399.052L512.281 341.916ZM475.415 427.635C471.005 429.798 466.81 432.671 462.468 434.91C462.628 435.866 462.802 436.746 462.992 437.692C463.129 445.742 464.684 482.217 460.692 486.643C459.398 488.077 457.376 489.084 455.592 489.759C460.057 491.785 471.341 498.71 476.02 501.387C488.499 508.395 500.926 515.494 513.299 522.686C526.445 513.274 546.164 502.552 560.732 494.858C561.081 490.468 560.814 482.045 560.828 477.333C560.956 465.082 560.879 452.829 560.597 440.58C553.425 437.092 546.394 433.322 539.521 429.277C538.489 437.731 540.785 443.878 528.631 444.504C517.193 444.839 505.656 444.752 494.206 444.628C486.345 444.543 482.942 445.713 478.407 438.813C478.097 435.303 478.69 428.526 477.956 425.726C477.195 426.257 475.927 426.947 475.415 427.635ZM515.9 527.696C515.984 539.501 515.966 551.306 515.844 563.111L515.871 576.56C552.78 578.351 545.079 571.917 546.468 610.192C548.727 611.756 556.198 615.599 559.083 617.185C567.044 621.563 575.606 626.941 583.652 630.937C583.975 630.812 584.295 630.68 584.612 630.54C587.698 629.198 594.164 625.212 597.204 623.394L618.055 610.851L645.185 594.486C647.474 593.1 652.767 591.513 653.652 589.214C651.439 587.236 625.23 575.386 620.46 573.117C619.68 576.281 620.64 579.734 619.857 582.966C619.306 585.241 617.773 586.786 615.734 587.84C613.82 588.83 611.669 589.23 609.544 589.437C602.155 590.155 594.229 589.419 586.783 589.366C581.024 589.324 575.17 589.861 569.427 589.488C567.722 589.377 566.022 589.109 564.409 588.529C562.618 587.886 561.594 587.09 560.863 585.292C558.887 580.43 558.267 538.513 560.675 534.324C565.04 526.73 579.866 532.408 586.666 530.325C587.621 530.032 587.53 529.705 587.969 528.871C587.548 520.82 587.849 510.732 587.958 502.634L587.56 501.543C583.286 498.963 571.093 503.866 566.303 499.032C561.535 501.276 556.61 504.581 551.969 507.154C540.32 513.611 527.738 521.878 515.9 527.696ZM438.572 520.438L439.263 520.491C442.897 520.755 446.514 520.637 450.157 520.577C454.548 520.498 459.587 520.411 462.81 523.916C463.997 525.142 464.477 526.495 464.662 528.2C465.048 531.773 465.001 535.002 464.994 538.656C464.966 552.912 464.795 567.203 464.793 581.462C464.741 581.777 464.688 582.091 464.635 582.405C469.3 585.21 484.122 590.316 489.499 591.974C488.948 574.648 494.972 576.649 509.432 576.853C509.705 560.635 509.716 544.414 509.463 528.195C505.398 525.568 500.955 523.183 496.731 520.784C478.809 510.607 460.827 500.716 443.393 489.707C441.943 489.381 441.076 488.998 439.723 489.547C438.556 490.962 438.829 493.071 438.703 494.898C439.244 503.953 438.364 511.972 438.572 520.438ZM372.301 433.384C381.982 438.279 393.201 443.315 402.535 448.259C403.996 444.366 400.881 436.984 404.665 433.785C410.026 429.254 421.954 430.492 428.609 430.521C438.211 430.521 447.814 430.612 457.415 430.795C464.221 426.33 470.676 423.184 478.124 418.086L478.063 416.978C468.601 410.39 449.89 399.121 439.47 393.226C418.324 405.591 392.643 420.27 372.301 433.384ZM439.039 629.992C441.354 631.382 443.756 632.769 445.995 634.268L474.521 617.102C478.76 614.579 485.877 610.939 489.462 607.97C489.89 605.237 490.037 602.117 489.452 599.404C481.427 595.548 467.672 591.981 459.871 587.285C458 586.159 457.966 582.449 457.846 580.486L457.253 578.649C454.073 577.356 442.971 577.803 439.331 578.333C438.742 580.22 438.873 581.797 438.861 583.771C439.679 598.663 438.379 614.971 439.039 629.992ZM619.99 540.319C620.143 548.855 619.975 557.426 620.045 565.97C623.981 568.343 630.298 571.111 634.564 573.136C642.441 576.903 650.345 580.616 658.274 584.273C658.32 563.888 658.943 538.621 658.034 518.64C653.936 520.201 649.096 523.625 645.122 525.931L619.99 540.319ZM403.59 484.714C403.082 473.367 403.081 467.004 403.071 455.712C400.38 454.73 397.492 453.284 394.922 451.967C385.758 447.273 376.122 442.957 367.081 438.057L367.091 485.695C367.082 488.478 366.682 503.176 367.157 505.034L367.84 505.513C370.875 504.535 377.828 500.067 381.121 498.118C388.662 493.736 396.152 489.268 403.59 484.714ZM539.207 415.053C539.077 417.625 538.958 419.306 539.208 421.906L558.141 431.936C560.059 432.953 565.617 435.747 567.187 436.853C567.565 438.567 567.544 441.079 567.6 442.891C574.252 443.026 580.906 443.056 587.559 442.98C587.799 439.525 587.699 435.146 587.71 431.609C587.541 419.265 587.82 406.7 587.516 394.44C584.856 393.038 582.794 391.716 580.264 390.102L539.207 415.053ZM432.107 520.553C431.745 511.251 432.051 499.085 432.041 489.592C424.802 489.676 416.112 490.436 408.858 489.744L373.566 509.798C379.663 513.528 398.997 522.575 405.613 525.297C412.694 516.892 422.204 522.039 429.998 520.879L432.107 520.553ZM658.1 465.583C652.639 465.486 647.136 465.904 641.68 465.811C633.954 465.679 630.931 464.131 628.715 456.915C625.863 459.14 625.8 458.919 622.503 460.419C621.2 461.393 621.874 484.503 621.687 488.399C633.365 494.354 646.277 502.617 658.29 509.06C657.978 496.8 657.936 484.534 658.163 472.272L658.1 465.583ZM539.643 406.914C542.265 405.704 549.235 401.306 551.966 399.64C559.174 395.242 566.906 390.888 573.907 386.275C554.829 375.37 534.971 362.378 515.905 352.08C515.72 361.614 516.018 371.576 515.907 381.233C516.047 383.225 515.767 384.185 516.717 385.602C523.596 387.973 534.167 382.674 538.187 390.395C540.227 394.313 539.184 402.189 539.643 406.914ZM432.332 625.199C432.558 610.433 432.145 595.576 432.368 580.854C432.198 580.347 432.134 578.267 431.853 578.216C422.125 576.437 414.14 581.485 406.341 574.166C402.582 576.512 399.433 578.139 395.701 580.376C395.495 588.186 395.951 596.074 395.629 604.032C397.747 605.457 400.074 606.601 402.302 607.855C412.309 613.486 422.093 620.04 432.332 625.199ZM629.006 450.121C628.635 439.933 629.094 428.989 628.976 418.66C617.497 412.574 605.313 405.053 594.044 398.332C594.087 413.132 594.351 428.723 593.911 443.45C600.99 443.695 607.664 442.437 614.756 443.462C621.334 444.413 621.447 448.827 622.019 454.199C624.744 452.498 626.46 451.969 629.006 450.121ZM452.181 637.263C461.756 644.189 475.509 651.426 485.845 657.632C492.543 661.654 503.716 668.913 510.535 671.507C509.739 667.181 509.942 660.812 509.872 656.241C509.764 649.152 509.611 642.063 509.412 634.976C506.264 635.317 498.929 635.048 495.563 634.967C488.23 630.444 489.773 624.042 489.528 616.222C479.308 620.713 463.328 631.604 452.181 637.263ZM509.4 351.349L466.367 377.004C459.797 380.894 451.693 385.385 445.327 389.426C455.122 395.226 469.151 402.95 478.294 408.945C478.996 402.903 476.879 392.838 480.667 388.842C485.086 384.18 502.215 386.012 509.527 385.943C509.566 381.621 509.611 377.605 509.878 373.278C509.757 366.039 509.723 358.561 509.4 351.349ZM616.507 492.77C615.585 492.207 614.659 491.65 613.73 491.098C610.434 495.085 613.968 493.972 616.507 492.77ZM395.6 573.04C400.11 571.147 401.336 570.237 405.161 567.389C405.269 562.788 406.795 534.223 404.962 532.377C392.199 526.485 379.555 520.335 367.04 513.932C367.049 524.864 367.714 548.032 366.745 557.988C367.206 560.953 366.937 560.768 370.499 560.711C374.223 560.652 378.066 560.657 381.75 560.573C392.198 560.335 395.878 562.328 395.6 573.04ZM425.608 471.953C426.666 471.391 431.963 469.26 428.007 468.477C425.284 468.807 425.324 469.326 425.608 471.953ZM621.602 495.757C620.035 498.39 618.19 500.582 614.995 500.896C608.746 501.509 600.977 501.079 594.657 501.237L594.353 506.397C594.62 514.438 594.551 522.486 594.144 530.521C602.871 530.652 612.592 528.69 618.08 534.322C626.113 528.427 643.643 519.587 653.163 513.867C642.564 507.967 632.043 501.93 621.602 495.757ZM546.567 617.616C546.535 632.979 546.7 636.12 529.227 635.566C524.686 635.415 520.148 635.225 515.611 634.996C515.822 647.134 515.298 659.471 515.735 671.549C526.142 666.161 535.552 659.918 545.578 654.098C556.618 647.689 567.083 641.557 577.934 634.802C567.837 629.729 557.209 623.125 546.567 617.616Z"/><path fill="#3DFFA8" d="M395.305 611.381C395.138 612.705 395.009 614.081 394.395 615.286C393.505 617.029 392.083 617.971 390.247 618.486C383.753 620.307 351.349 620.249 343.957 619.434C341.943 619.212 339.081 618.775 337.398 617.566C336.138 616.66 335.559 614.607 335.204 613.187C333.873 607.859 333.431 567.484 336.039 563.778C340.085 558.03 353.642 561.426 359.896 560.569C360.092 560.542 360.288 560.507 360.484 560.477C360.539 569.764 360.331 580.258 361.086 589.42C367.366 595.838 378.102 600.605 385.81 605.258C388.874 607.107 392.742 608.813 395.305 611.381Z"/><path fill="#3DFFA8" d="M634.513 405.989L663.882 405.891C670.442 405.847 681.773 404.727 687.187 408.276C689.701 409.923 689.763 419.508 689.508 422.392C688.502 433.774 690.77 448.492 689.001 459.521C679.8 474.111 664.622 457.76 664.116 470.049C663.426 460.602 664.032 442.631 664.069 432.457C657.094 427.2 633.398 415.385 629.54 411.406C631.417 408.816 631.813 408.196 634.383 406.098L634.513 405.989Z"/><path fill="#3DFFA8" d="M509.527 385.943C509.566 381.621 509.611 377.605 509.878 373.278C510.124 377.668 508.918 383.115 511.134 385.565C512.737 386.339 512.641 386.256 514.439 386.129C516.114 384.862 515.766 383.319 515.907 381.233C516.047 383.225 515.767 384.185 516.717 385.602C523.596 387.973 534.167 382.674 538.187 390.395C540.227 394.313 539.184 402.189 539.643 406.914C538.368 409.195 538.921 412.44 539.207 415.053C539.077 417.625 538.958 419.306 539.208 421.906C538.48 424.613 537.832 426.835 539.521 429.277C538.489 437.731 540.785 443.878 528.631 444.504C517.193 444.839 505.656 444.752 494.206 444.628C486.345 444.543 482.942 445.713 478.407 438.813C478.097 435.303 478.69 428.526 477.956 425.726C478.869 423.359 478.233 420.668 478.124 418.086L478.063 416.978C478.252 414.388 478.606 411.484 478.294 408.945C478.996 402.903 476.879 392.838 480.667 388.842C485.086 384.18 502.215 386.012 509.527 385.943Z"/><path fill="#3DFFA8" d="M515.394 576.713C515.415 574.065 515.155 564.853 515.844 563.111L515.871 576.56C552.78 578.351 545.079 571.917 546.468 610.192C545.957 612.155 545.555 615.871 546.567 617.616C546.535 632.979 546.7 636.12 529.227 635.566C524.686 635.415 520.148 635.225 515.611 634.996C513.286 634.641 511.664 634.445 509.412 634.976C506.264 635.317 498.929 635.048 495.563 634.967C488.23 630.444 489.773 624.042 489.528 616.222C490.135 613.936 489.671 610.407 489.462 607.97C489.89 605.237 490.037 602.117 489.452 599.404C489.589 597.19 489.783 594.127 489.499 591.974C488.948 574.648 494.972 576.649 509.432 576.853C511.334 577.075 513.462 576.84 515.394 576.713Z"/><path fill="#E8F0EA" d="M539.208 421.906L558.141 431.936C560.059 432.953 565.617 435.747 567.187 436.853C567.565 438.567 567.544 441.079 567.6 442.891C574.252 443.026 580.906 443.056 587.559 442.98C587.799 439.525 587.699 435.146 587.71 431.609C588.628 434.196 588.172 496.129 587.958 502.634L587.56 501.543C583.286 498.963 571.093 503.866 566.303 499.032C561.535 501.276 556.61 504.581 551.969 507.154C540.32 513.611 527.738 521.878 515.9 527.696C515.984 539.501 515.966 551.306 515.844 563.111C515.155 564.853 515.415 574.065 515.394 576.713C513.462 576.84 511.334 577.075 509.432 576.853C509.705 560.635 509.716 544.414 509.463 528.195C505.398 525.568 500.955 523.183 496.731 520.784C478.809 510.607 460.827 500.716 443.393 489.707C446.155 487.337 452.286 488.801 455.592 489.759C460.057 491.785 471.341 498.71 476.02 501.387C488.499 508.395 500.926 515.494 513.299 522.686C526.445 513.274 546.164 502.552 560.732 494.858C561.081 490.468 560.814 482.045 560.828 477.333C560.956 465.082 560.879 452.829 560.597 440.58C553.425 437.092 546.394 433.322 539.521 429.277C537.832 426.835 538.48 424.613 539.208 421.906Z"/><path fill="#3DFFA8" d="M587.71 431.609C588.628 434.196 588.172 496.129 587.958 502.634L587.56 501.543C583.286 498.963 571.093 503.866 566.303 499.032C566.801 494.845 566.488 481.062 566.496 476.392C566.506 463.209 566.736 450.028 567.187 436.853C567.565 438.567 567.544 441.079 567.6 442.891C574.252 443.026 580.906 443.056 587.559 442.98C587.799 439.525 587.699 435.146 587.71 431.609Z"/><path fill="#3DFFA8" d="M620.46 573.117C619.68 576.281 620.64 579.734 619.857 582.966C619.306 585.241 617.773 586.786 615.734 587.84C613.82 588.83 611.669 589.23 609.544 589.437C602.155 590.155 594.229 589.419 586.783 589.366C581.024 589.324 575.17 589.861 569.427 589.488C567.722 589.377 566.022 589.109 564.409 588.529C562.618 587.886 561.594 587.09 560.863 585.292C558.887 580.43 558.267 538.513 560.675 534.324C565.04 526.73 579.866 532.408 586.666 530.325C587.621 530.032 587.53 529.705 587.969 528.871C588.143 537.78 588.197 546.69 588.13 555.601C598.227 561.813 611.054 567.189 620.46 573.117Z"/><path fill="#3DFFA8" d="M457.415 430.795C458.964 432.049 460.968 434.044 462.468 434.91C462.628 435.866 462.802 436.746 462.992 437.692C463.129 445.742 464.684 482.217 460.692 486.643C459.398 488.077 457.376 489.084 455.592 489.759C452.286 488.801 446.155 487.337 443.393 489.707C441.943 489.381 441.076 488.998 439.723 489.547C438.556 490.962 438.829 493.071 438.703 494.898C437.965 493.002 438.54 470.27 438.627 466.616C430.555 462.316 408.84 452.863 402.535 448.259C403.996 444.366 400.881 436.984 404.665 433.785C410.026 429.254 421.954 430.492 428.609 430.521C438.211 430.521 447.814 430.612 457.415 430.795Z"/><defs><linearGradient id="gradient_0" gradientUnits="userSpaceOnUse" x1="437.8201" y1="548.83215" x2="464.62286" y2="549.9892"><stop offset="0" stop-color="#73FCCA"/><stop offset="1" stop-color="#ABE8CB"/></linearGradient></defs><path fill="url(#gradient_0)" d="M438.572 520.438L439.263 520.491C442.897 520.755 446.514 520.637 450.157 520.577C454.548 520.498 459.587 520.411 462.81 523.916C463.997 525.142 464.477 526.495 464.662 528.2C465.048 531.773 465.001 535.002 464.994 538.656C464.966 552.912 464.795 567.203 464.793 581.462C464.741 581.777 464.688 582.091 464.635 582.405C464.37 581.49 464.234 577.901 464.158 577.854C459.869 575.259 458.358 576.71 457.846 580.486L457.253 578.649C454.073 577.356 442.971 577.803 439.331 578.333C438.742 580.22 438.873 581.797 438.861 583.771C437.948 578.255 438.063 563.29 438.104 557.307C438.184 545.507 437.744 532.1 438.572 520.438Z"/><path fill="#3DFFA8" d="M628.976 418.66C634.835 421.218 653.319 432.374 658.609 436.155C658.33 443.603 658.23 451.057 658.312 458.51C658.35 462.161 658.778 468.974 658.163 472.272L658.1 465.583C652.639 465.486 647.136 465.904 641.68 465.811C633.954 465.679 630.931 464.131 628.715 456.915C625.863 459.14 625.8 458.919 622.503 460.419C621.481 458.61 621.496 456.137 622.019 454.199C624.744 452.498 626.46 451.969 629.006 450.121C628.635 439.933 629.094 428.989 628.976 418.66Z"/><path fill="#E8F0EA" d="M629.006 450.121C629.937 452.49 629.917 454.733 628.715 456.915C625.863 459.14 625.8 458.919 622.503 460.419C621.481 458.61 621.496 456.137 622.019 454.199C624.744 452.498 626.46 451.969 629.006 450.121Z"/><path fill="#3DFFA8" d="M593.911 443.45C600.99 443.695 607.664 442.437 614.756 443.462C621.334 444.413 621.447 448.827 622.019 454.199C621.496 456.137 621.481 458.61 622.503 460.419C621.2 461.393 621.874 484.503 621.687 488.399C612.824 484.514 603.185 477.131 593.951 472.731L593.911 443.45Z"/><path fill="#3DFFA8" d="M405.613 525.297C412.694 516.892 422.204 522.039 429.998 520.879L432.107 520.553C432.513 529.559 432.02 541.961 432.16 551.367L431.497 551.756C424.837 555.491 411.643 565.315 405.161 567.389C405.269 562.788 406.795 534.223 404.962 532.377C405.828 530.517 405.646 527.399 405.613 525.297Z"/><path fill="#3DFFA8" d="M366.669 587.159C366.707 581.503 365.696 562.439 366.745 557.988C367.206 560.953 366.937 560.768 370.499 560.711C374.223 560.652 378.066 560.657 381.75 560.573C392.198 560.335 395.878 562.328 395.6 573.04C395.445 575.325 395.58 578.061 395.701 580.376C395.495 588.186 395.951 596.074 395.629 604.032C388.943 601.367 372.838 591.444 366.669 587.159Z"/><path fill="#3DFFA8" d="M403.071 455.712C406.253 456.957 424.791 466.505 428.007 468.477C425.284 468.807 425.324 469.326 425.608 471.953C424.902 472.914 405.773 483.653 403.59 484.714C403.082 473.367 403.081 467.004 403.071 455.712Z"/><path fill="#3DFFA8" d="M593.929 478.612L594.709 479.187C598.401 481.942 609.293 488.558 613.73 491.098C610.434 495.085 613.968 493.972 616.507 492.77C618.617 493.59 619.88 494.963 621.602 495.757C620.035 498.39 618.19 500.582 614.995 500.896C608.746 501.509 600.977 501.079 594.657 501.237L594.353 506.397C593.794 505.224 593.933 481.911 593.929 478.612Z"/><path fill="#3DFFA8" d="M619.99 540.319C620.143 548.855 619.975 557.426 620.045 565.97C617.669 565.12 597.052 554.84 596.909 553.713C596.994 553.5 617.934 541.385 619.99 540.319Z"/><path fill="#3DFFA8" d="M406.341 574.166C407.528 572.842 429.287 560.236 432.031 558.734C432.066 562.253 432.818 578.505 432.368 580.854C432.198 580.347 432.134 578.267 431.853 578.216C422.125 576.437 414.14 581.485 406.341 574.166Z"/><path fill="#3DFFA8" d="M594.144 530.521C602.871 530.652 612.592 528.69 618.08 534.322C611.023 539.82 601.621 543.481 593.958 548.542C593.905 542.534 593.967 536.526 594.144 530.521Z"/><path fill="#E8F0EA" d="M457.846 580.486C458.358 576.71 459.869 575.259 464.158 577.854C464.234 577.901 464.37 581.49 464.635 582.405C469.3 585.21 484.122 590.316 489.499 591.974C489.783 594.127 489.589 597.19 489.452 599.404C481.427 595.548 467.672 591.981 459.871 587.285C458 586.159 457.966 582.449 457.846 580.486Z"/><path fill="#3DFFA8" d="M408.858 489.744C415.685 483.65 423.779 481.655 432.04 474.497C432.06 479.217 432.194 484.925 432.041 489.592C424.802 489.676 416.112 490.436 408.858 489.744Z"/><path fill="#E8F0EA" d="M457.415 430.795C464.221 426.33 470.676 423.184 478.124 418.086C478.233 420.668 478.869 423.359 477.956 425.726C477.195 426.257 475.927 426.947 475.415 427.635C471.005 429.798 466.81 432.671 462.468 434.91C460.968 434.044 458.964 432.049 457.415 430.795Z"/><path fill="#0E1210" fill-opacity="0.11764706" d="M462.468 434.91C466.81 432.671 471.005 429.798 475.415 427.635C474.312 429.192 468.681 432.527 469.347 433.424C469.685 433.51 469.956 433.23 470.291 433.296C470.6 433.748 470.337 434.12 470.013 434.52C469.179 435.549 470.388 437.074 470.188 438.273C470.119 438.683 471.098 441.722 469.91 441.919C468.209 440.885 470.087 437.183 468.106 434.138L468.121 434.086L468.25 434.018C466.831 432.357 463.9 435.269 463.311 436.859L462.992 437.692C462.802 436.746 462.628 435.866 462.468 434.91Z"/><path fill="#3DFFA8" fill-opacity="0.91764706" d="M425.608 471.953C425.324 469.326 425.284 468.807 428.007 468.477C431.963 469.26 426.666 471.391 425.608 471.953Z"/><path fill="#3DFFA8" fill-opacity="0.91764706" d="M613.73 491.098C614.659 491.65 615.585 492.207 616.507 492.77C613.968 493.972 610.434 495.085 613.73 491.098Z"/></svg>